# xmcd
# 
# Track frame offsets:
#     150
#     13545
#     35119
#     49427
#     69654
#     85304
# 
# Disc length: 1341
# 
# Revision: 0
# Processed by: cddbd v1.5.2PL0 Copyright (c) Steve Scherf et al.
# Submitted via: BonkEnc v1.0.15
# 
DISCID=50053b06
DTITLE=Mama Kin - Papoose
DYEAR=2008
DGENRE=Blues
TTITLE0=That Race
TTITLE1=Questions
TTITLE2=Find Me
TTITLE3=Woman's Life
TTITLE4=Sleep In My Bed
TTITLE5=St James
EXTD=
EXTT0=
EXTT1=
EXTT2=
EXTT3=
EXTT4=
EXTT5=
PLAYORDER=
